<svg width="304" height="246" viewBox="0 0 304 246" fill="none" xmlns="http://www.w3.org/2000/svg">
<g opacity="0.5">
<path d="M138.425 13.7636C137.783 14.0818 137.057 14.2092 136.34 14.1298C135.622 14.0504 134.945 13.7677 134.394 13.3174C133.843 12.8671 133.443 12.2696 133.245 11.6002C133.047 10.9309 133.058 10.2199 133.279 9.5571C133.5 8.8943 133.92 8.30949 134.485 7.87661C135.051 7.44374 135.737 7.18225 136.457 7.1252C137.177 7.06815 137.898 7.2181 138.529 7.55611C139.161 7.89412 139.674 8.40499 140.004 9.02413C140.224 9.43503 140.358 9.88383 140.398 10.3448C140.438 10.8057 140.383 11.2696 140.236 11.71C140.09 12.1504 139.854 12.5585 139.543 12.9109C139.233 13.2633 138.853 13.5531 138.425 13.7636Z" fill="white"/>
<path d="M145.438 4.67385C145.065 4.85792 144.643 4.93124 144.226 4.88455C143.81 4.83785 143.417 4.67324 143.098 4.4115C142.778 4.14976 142.546 3.80264 142.431 3.41396C142.316 3.02528 142.323 2.61248 142.452 2.22769C142.58 1.8429 142.824 1.50339 143.152 1.25202C143.48 1.00064 143.879 0.84869 144.297 0.815347C144.714 0.782005 145.133 0.868762 145.5 1.06467C145.867 1.26058 146.165 1.55686 146.357 1.91607C146.485 2.15525 146.563 2.41642 146.586 2.6846C146.609 2.95279 146.577 3.22272 146.492 3.47892C146.406 3.73512 146.269 3.97255 146.088 4.17761C145.907 4.38266 145.686 4.5513 145.438 4.67385Z" fill="white"/>
<path d="M48.83 237.296C46.8739 238.279 45.3456 239.902 44.5194 241.874C42.3767 239.684 41.1246 236.824 40.9925 233.816C39.7791 234.313 38.7574 235.164 38.0707 236.249C37.3839 237.333 37.0665 238.598 37.1628 239.865L25.8162 229.656C25.2344 233.673 24.6406 237.691 24.035 241.708C21.8641 235.738 18.7258 230.136 14.7369 225.112C14.6537 229.664 14.5726 234.211 14.4934 238.755C9.01239 228.158 0.878495 219.044 -9.17344 212.236C-6.20469 218.566 -3.23594 224.958 -1.73375 231.756C-4.55234 226.329 -9.16466 221.96 -14.8438 219.338C-8.70785 227.293 -4.36382 236.396 -2.09 246.063L52.3391 246.097C52.3391 246.097 50.0234 240.323 54.0609 238.377L48.83 237.296Z" fill="#DCB493"/>
<path d="M248.523 240.943C250.647 241.508 252.306 242.44 253.203 243.573C255.53 242.315 256.889 240.671 257.033 238.943C258.35 239.229 259.459 239.718 260.205 240.341C260.951 240.964 261.295 241.691 261.191 242.419L273.51 236.553C274.142 238.861 274.787 241.169 275.444 243.478C277.801 240.047 281.208 236.829 285.539 233.942C285.63 236.557 285.718 239.17 285.804 241.781C291.755 235.692 300.586 230.455 311.5 226.543C308.276 230.18 305.053 233.853 303.422 237.759C306.482 234.641 311.49 232.13 317.656 230.624C310.994 235.195 306.278 240.425 303.809 245.98L244.713 246C244.713 246 247.227 242.682 242.844 241.564L248.523 240.943Z" fill="#DCB493"/>
</g>
</svg>
